# xmcd CD database file
#
# Track frame offsets:
#	150
#	18010
#	105587
#	129995
#	152792
#	170913
#	183537
#	192647
#	212095
#	248417
#
# Disc length: 4228 seconds
#
# Revision: 0
# Processed by: cddbd v1.5.2PL0 Copyright (c) Steve Scherf et al.
# Submitted via: CDex 1.51
#
DISCID=8310820a
DTITLE=Toronto Winds Orchestra - Northern Winds
DYEAR=2009
DGENRE=Wind Band
TTITLE0=Louis Applebaum - High Spirits - A short overture for Concert Band
TTITLE1=Michael Colgrass - Dream Dancer
TTITLE2=Henry Kucharszyk - Some Assembly Required I
TTITLE3=Henry Kucharszyk - Some Assembly Required II
TTITLE4=Henry Kucharszyk - Some Assembly Required III
TTITLE5=Gary Kulesha - Ensembles I
TTITLE6=Gary Kulesha - Ensembles II
TTITLE7=Gary Kulesha - Ensembles III
TTITLE8=Harry Feedman - Laurentian Moods
TTITLE9=Olivier Messiaen - Oiseaux exotiques
EXTD=YEAR: 2009
EXTT0=
EXTT1=
EXTT2=
EXTT3=
EXTT4=
EXTT5=
EXTT6=
EXTT7=
EXTT8=
EXTT9=
PLAYORDER=
